<?xml version="1.0" encoding="utf-8"?>
<!-- Generator: Adobe Illustrator 17.1.0, SVG Export Plug-In . SVG Version: 6.00 Build 0)  -->
<!DOCTYPE svg PUBLIC "-//W3C//DTD SVG 1.1//EN" "http://www.w3.org/Graphics/SVG/1.1/DTD/svg11.dtd">
<svg version="1.1" xmlns="http://www.w3.org/2000/svg" xmlns:xlink="http://www.w3.org/1999/xlink" x="0px" y="0px"
	 viewBox="0 0 125 125" enable-background="new 0 0 125 125" xml:space="preserve">
<g id="Layer_3">
</g>
<g id="Layer_1">
	<g id="Layer_2">
	</g>
	<g>
		<g>
			<path fill="#F0F1F1" stroke="#205080" stroke-linecap="round" stroke-linejoin="round" stroke-miterlimit="10" d="M20.7,107.6
				c0,2.6,2.1,4.7,4.7,4.7h31c2.6,0,4.7-2.1,4.7-4.7V32.2H20.7L20.7,107.6z"/>
			
				<line fill="#FFFFFF" stroke="#205080" stroke-linecap="round" stroke-linejoin="round" stroke-miterlimit="10" x1="31.2" y1="43.4" x2="50.6" y2="43.4"/>
			
				<line fill="#FFFFFF" stroke="#205080" stroke-linecap="round" stroke-linejoin="round" stroke-miterlimit="10" x1="31.2" y1="95.1" x2="50.6" y2="95.1"/>
			
				<line fill="#FFFFFF" stroke="#205080" stroke-linecap="round" stroke-linejoin="round" stroke-miterlimit="10" x1="31.2" y1="101" x2="50.6" y2="101"/>
			<g>
				
					<circle fill="#D04437" stroke="#205080" stroke-linecap="round" stroke-linejoin="round" stroke-miterlimit="10" cx="40.9" cy="60.4" r="5.5"/>
				<g>
					
						<line fill="none" stroke="#FFFFFF" stroke-linecap="round" stroke-linejoin="round" stroke-miterlimit="10" x1="39.2" y1="58.7" x2="42.6" y2="62.1"/>
					
						<line fill="none" stroke="#FFFFFF" stroke-linecap="round" stroke-linejoin="round" stroke-miterlimit="10" x1="42.6" y1="58.7" x2="39.2" y2="62.1"/>
				</g>
			</g>
		</g>
		<g>
			<path fill="#FFFFFF" stroke="#205080" stroke-linecap="round" stroke-linejoin="round" stroke-miterlimit="10" d="M53.9,106.4
				c0,3.2,2.6,5.9,5.9,5.9h38.7c3.2,0,5.8-2.6,5.8-5.9V12.3H53.9L53.9,106.4z"/>
			
				<line fill="#FFFFFF" stroke="#205080" stroke-linecap="round" stroke-linejoin="round" stroke-miterlimit="10" x1="65.6" y1="23.2" x2="92.6" y2="23.2"/>
			<g>
				
					<line fill="#FFFFFF" stroke="#205080" stroke-linecap="round" stroke-linejoin="round" stroke-miterlimit="10" x1="66.1" y1="84.7" x2="92.1" y2="84.7"/>
				
					<line fill="#FFFFFF" stroke="#205080" stroke-linecap="round" stroke-linejoin="round" stroke-miterlimit="10" x1="66.1" y1="95.1" x2="92.1" y2="95.1"/>
			</g>
			<g>
				
					<circle fill="#7CA50A" stroke="#205080" stroke-linecap="round" stroke-linejoin="round" stroke-miterlimit="10" cx="78.9" cy="46.8" r="5.6"/>
				<polyline fill="none" stroke="#FFFFFF" stroke-linecap="round" stroke-linejoin="round" stroke-miterlimit="10" points="
					76.4,47.1 78,48.8 81.8,45 				"/>
			</g>
		</g>
	</g>
</g>
</svg>
