<?xml version="1.0" encoding="utf-8"?>
<!-- Generator: Adobe Illustrator 17.1.0, SVG Export Plug-In . SVG Version: 6.00 Build 0)  -->
<!DOCTYPE svg PUBLIC "-//W3C//DTD SVG 1.1//EN" "http://www.w3.org/Graphics/SVG/1.1/DTD/svg11.dtd">
<svg version="1.1" xmlns="http://www.w3.org/2000/svg" xmlns:xlink="http://www.w3.org/1999/xlink" x="0px" y="0px"
	 viewBox="0 0 125 125" enable-background="new 0 0 125 125" xml:space="preserve">
<g id="Layer_3">
</g>
<g id="Layer_1">
	<g id="Layer_2">
	</g>
	<g>
		<g>
			<g>
				<rect x="49" y="6" fill="#FFFFFF" width="34.9" height="81.6"/>
				
					<rect x="49" y="6" fill="none" stroke="#205080" stroke-linecap="round" stroke-linejoin="round" stroke-miterlimit="10" width="34.9" height="81.6"/>
			</g>
			<g>
				<rect x="56.9" y="12" fill="#FFD351" width="6.9" height="5.9"/>
				
					<rect x="56.9" y="12" fill="none" stroke="#205080" stroke-linecap="round" stroke-linejoin="round" stroke-miterlimit="10" width="6.9" height="5.9"/>
			</g>
			<g>
				<rect x="69.7" y="12" fill="#F0F1F1" width="6.9" height="5.9"/>
				
					<rect x="69.7" y="12" fill="none" stroke="#205080" stroke-linecap="round" stroke-linejoin="round" stroke-miterlimit="10" width="6.9" height="5.9"/>
			</g>
			<g>
				<rect x="56.9" y="21.7" fill="#F0F1F1" width="6.9" height="5.9"/>
				
					<rect x="56.9" y="21.7" fill="none" stroke="#205080" stroke-linecap="round" stroke-linejoin="round" stroke-miterlimit="10" width="6.9" height="5.9"/>
			</g>
			<g>
				<rect x="69.7" y="21.7" fill="#FFD351" width="6.9" height="5.9"/>
				
					<rect x="69.7" y="21.7" fill="none" stroke="#205080" stroke-linecap="round" stroke-linejoin="round" stroke-miterlimit="10" width="6.9" height="5.9"/>
			</g>
			<g>
				<rect x="56.9" y="31.4" fill="#FFD351" width="6.9" height="5.9"/>
				
					<rect x="56.9" y="31.4" fill="none" stroke="#205080" stroke-linecap="round" stroke-linejoin="round" stroke-miterlimit="10" width="6.9" height="5.9"/>
			</g>
			<g>
				<rect x="69.7" y="31.4" fill="#F0F1F1" width="6.9" height="5.9"/>
				
					<rect x="69.7" y="31.4" fill="none" stroke="#205080" stroke-linecap="round" stroke-linejoin="round" stroke-miterlimit="10" width="6.9" height="5.9"/>
			</g>
			<g>
				<rect x="56.9" y="46.2" fill="#FFD351" width="6.9" height="6.9"/>
				
					<rect x="56.9" y="46.2" fill="none" stroke="#205080" stroke-linecap="round" stroke-linejoin="round" stroke-miterlimit="10" width="6.9" height="6.9"/>
			</g>
			<g>
				<rect x="69.7" y="41.1" fill="#F0F1F1" width="6.9" height="5.9"/>
				
					<rect x="69.7" y="41.1" fill="none" stroke="#205080" stroke-linecap="round" stroke-linejoin="round" stroke-miterlimit="10" width="6.9" height="5.9"/>
			</g>
			<g>
				<rect x="69.7" y="50.7" fill="#F0F1F1" width="6.9" height="5.9"/>
				
					<rect x="69.7" y="50.7" fill="none" stroke="#205080" stroke-linecap="round" stroke-linejoin="round" stroke-miterlimit="10" width="6.9" height="5.9"/>
			</g>
		</g>
		<g>
			<rect x="63.9" y="61.5" fill="#F0F1F1" width="33.9" height="57"/>
			
				<rect x="63.9" y="61.5" fill="none" stroke="#205080" stroke-linecap="round" stroke-linejoin="round" stroke-miterlimit="10" width="33.9" height="57"/>
		</g>
		<g>
			<g>
				<rect x="21" y="43.7" fill="#FFFFFF" width="42.8" height="74.8"/>
				
					<rect x="21" y="43.7" fill="none" stroke="#205080" stroke-linecap="round" stroke-linejoin="round" stroke-miterlimit="10" width="42.8" height="74.8"/>
			</g>
			<g>
				<rect x="28" y="48.8" fill="#F0F1F1" width="6.8" height="6"/>
				
					<rect x="28" y="48.8" fill="none" stroke="#205080" stroke-linecap="round" stroke-linejoin="round" stroke-miterlimit="10" width="6.8" height="6"/>
			</g>
			<g>
				<rect x="39.2" y="48.8" fill="#FFD351" width="6.8" height="6"/>
				
					<rect x="39.2" y="48.8" fill="none" stroke="#205080" stroke-linecap="round" stroke-linejoin="round" stroke-miterlimit="10" width="6.8" height="6"/>
			</g>
			<g>
				<rect x="28" y="58.9" fill="#F0F1F1" width="6.8" height="6"/>
				
					<rect x="28" y="58.9" fill="none" stroke="#205080" stroke-linecap="round" stroke-linejoin="round" stroke-miterlimit="10" width="6.8" height="6"/>
			</g>
			<g>
				<rect x="39.2" y="58.9" fill="#F0F1F1" width="6.8" height="6"/>
				
					<rect x="39.2" y="58.9" fill="none" stroke="#205080" stroke-linecap="round" stroke-linejoin="round" stroke-miterlimit="10" width="6.8" height="6"/>
			</g>
			<g>
				<rect x="28" y="69.1" fill="#FFD351" width="6.8" height="6"/>
				
					<rect x="28" y="69.1" fill="none" stroke="#205080" stroke-linecap="round" stroke-linejoin="round" stroke-miterlimit="10" width="6.8" height="6"/>
			</g>
			<g>
				<rect x="39.2" y="69.1" fill="#F0F1F1" width="6.8" height="6"/>
				
					<rect x="39.2" y="69.1" fill="none" stroke="#205080" stroke-linecap="round" stroke-linejoin="round" stroke-miterlimit="10" width="6.8" height="6"/>
			</g>
			<g>
				<g>
					<rect x="50.1" y="69.1" fill="#F0F1F1" width="6.8" height="6"/>
					
						<rect x="50.1" y="69.1" fill="none" stroke="#205080" stroke-linecap="round" stroke-linejoin="round" stroke-miterlimit="10" width="6.8" height="6"/>
				</g>
			</g>
			<g>
				<rect x="28" y="79" fill="#F0F1F1" width="6.8" height="6"/>
				
					<rect x="28" y="79" fill="none" stroke="#205080" stroke-linecap="round" stroke-linejoin="round" stroke-miterlimit="10" width="6.8" height="6"/>
			</g>
			<g>
				<rect x="39.2" y="79" fill="#F0F1F1" width="6.8" height="6"/>
				
					<rect x="39.2" y="79" fill="none" stroke="#205080" stroke-linecap="round" stroke-linejoin="round" stroke-miterlimit="10" width="6.8" height="6"/>
			</g>
			<g>
				<g>
					<rect x="50.1" y="79" fill="#FFD351" width="6.8" height="6"/>
					
						<rect x="50.1" y="79" fill="none" stroke="#205080" stroke-linecap="round" stroke-linejoin="round" stroke-miterlimit="10" width="6.8" height="6"/>
				</g>
			</g>
			<g>
				<rect x="28" y="89" fill="#FFD351" width="6.8" height="6"/>
				
					<rect x="28" y="89" fill="none" stroke="#205080" stroke-linecap="round" stroke-linejoin="round" stroke-miterlimit="10" width="6.8" height="6"/>
			</g>
			<g>
				<rect x="39.2" y="89" fill="#F0F1F1" width="6.8" height="6"/>
				
					<rect x="39.2" y="89" fill="none" stroke="#205080" stroke-linecap="round" stroke-linejoin="round" stroke-miterlimit="10" width="6.8" height="6"/>
			</g>
			<g>
				<g>
					<rect x="50.1" y="89" fill="#FFD351" width="6.8" height="6"/>
					
						<rect x="50.1" y="89" fill="none" stroke="#205080" stroke-linecap="round" stroke-linejoin="round" stroke-miterlimit="10" width="6.8" height="6"/>
				</g>
			</g>
			<g>
				<rect x="28" y="99" fill="#F0F1F1" width="6.8" height="6"/>
				
					<rect x="28" y="99" fill="none" stroke="#205080" stroke-linecap="round" stroke-linejoin="round" stroke-miterlimit="10" width="6.8" height="6"/>
			</g>
			<g>
				<rect x="39.2" y="99" fill="#FFD351" width="6.8" height="6"/>
				
					<rect x="39.2" y="99" fill="none" stroke="#205080" stroke-linecap="round" stroke-linejoin="round" stroke-miterlimit="10" width="6.8" height="6"/>
			</g>
			<g>
				<g>
					<rect x="50.1" y="99" fill="#F0F1F1" width="6.8" height="6"/>
					
						<rect x="50.1" y="99" fill="none" stroke="#205080" stroke-linecap="round" stroke-linejoin="round" stroke-miterlimit="10" width="6.8" height="6"/>
				</g>
			</g>
			<g>
				<g>
					<rect x="50.1" y="58.9" fill="#F0F1F1" width="6.8" height="6"/>
					
						<rect x="50.1" y="58.9" fill="none" stroke="#205080" stroke-linecap="round" stroke-linejoin="round" stroke-miterlimit="10" width="6.8" height="6"/>
				</g>
			</g>
			<g>
				<g>
					<rect x="50.1" y="48.8" fill="#F0F1F1" width="6.8" height="6"/>
					
						<rect x="50.1" y="48.8" fill="none" stroke="#205080" stroke-linecap="round" stroke-linejoin="round" stroke-miterlimit="10" width="6.8" height="6"/>
				</g>
			</g>
		</g>
		<g>
			<rect x="69.4" y="67.8" fill="#FFD351" width="5.4" height="5.4"/>
			
				<rect x="69.4" y="67.8" fill="none" stroke="#205080" stroke-linecap="round" stroke-linejoin="round" stroke-miterlimit="10" width="5.4" height="5.4"/>
		</g>
		<g>
			<rect x="69.4" y="76.9" fill="#FFFFFF" width="5.4" height="5.4"/>
			
				<rect x="69.4" y="76.9" fill="none" stroke="#205080" stroke-linecap="round" stroke-linejoin="round" stroke-miterlimit="10" width="5.4" height="5.4"/>
		</g>
		<g>
			<rect x="86.9" y="76.9" fill="#FFFFFF" width="5.4" height="5.4"/>
			
				<rect x="86.9" y="76.9" fill="none" stroke="#205080" stroke-linecap="round" stroke-linejoin="round" stroke-miterlimit="10" width="5.4" height="5.4"/>
		</g>
		<g>
			<rect x="78" y="76.9" fill="#FFFFFF" width="5.4" height="5.4"/>
			
				<rect x="78" y="76.9" fill="none" stroke="#205080" stroke-linecap="round" stroke-linejoin="round" stroke-miterlimit="10" width="5.4" height="5.4"/>
		</g>
		<g>
			<rect x="69.4" y="85.8" fill="#FFFFFF" width="5.4" height="5.4"/>
			
				<rect x="69.4" y="85.8" fill="none" stroke="#205080" stroke-linecap="round" stroke-linejoin="round" stroke-miterlimit="10" width="5.4" height="5.4"/>
		</g>
		<g>
			<rect x="86.9" y="85.8" fill="#FFFFFF" width="5.4" height="5.4"/>
			
				<rect x="86.9" y="85.8" fill="none" stroke="#205080" stroke-linecap="round" stroke-linejoin="round" stroke-miterlimit="10" width="5.4" height="5.4"/>
		</g>
		<g>
			<rect x="78" y="85.8" fill="#FFFFFF" width="5.4" height="5.4"/>
			
				<rect x="78" y="85.8" fill="none" stroke="#205080" stroke-linecap="round" stroke-linejoin="round" stroke-miterlimit="10" width="5.4" height="5.4"/>
		</g>
		<g>
			<rect x="69.4" y="94.7" fill="#FFFFFF" width="5.4" height="5.4"/>
			
				<rect x="69.4" y="94.7" fill="none" stroke="#205080" stroke-linecap="round" stroke-linejoin="round" stroke-miterlimit="10" width="5.4" height="5.4"/>
		</g>
		<g>
			<rect x="86.9" y="94.7" fill="#FFFFFF" width="5.4" height="5.4"/>
			
				<rect x="86.9" y="94.7" fill="none" stroke="#205080" stroke-linecap="round" stroke-linejoin="round" stroke-miterlimit="10" width="5.4" height="5.4"/>
		</g>
		<g>
			<rect x="78" y="94.7" fill="#FFFFFF" width="5.4" height="5.4"/>
			
				<rect x="78" y="94.7" fill="none" stroke="#205080" stroke-linecap="round" stroke-linejoin="round" stroke-miterlimit="10" width="5.4" height="5.4"/>
		</g>
		<g>
			<rect x="86.9" y="67.8" fill="#FFFFFF" width="5.4" height="5.4"/>
			
				<rect x="86.9" y="67.8" fill="none" stroke="#205080" stroke-linecap="round" stroke-linejoin="round" stroke-miterlimit="10" width="5.4" height="5.4"/>
		</g>
		<g>
			<rect x="78" y="67.8" fill="#FFFFFF" width="5.4" height="5.4"/>
			
				<rect x="78" y="67.8" fill="none" stroke="#205080" stroke-linecap="round" stroke-linejoin="round" stroke-miterlimit="10" width="5.4" height="5.4"/>
		</g>
	</g>
</g>
</svg>
