<?xml version="1.0" encoding="utf-8"?>
<!-- Generator: Adobe Illustrator 17.1.0, SVG Export Plug-In . SVG Version: 6.00 Build 0)  -->
<!DOCTYPE svg PUBLIC "-//W3C//DTD SVG 1.1//EN" "http://www.w3.org/Graphics/SVG/1.1/DTD/svg11.dtd">
<svg version="1.1" xmlns="http://www.w3.org/2000/svg" xmlns:xlink="http://www.w3.org/1999/xlink" x="0px" y="0px"
	 viewBox="0 0 125 125" enable-background="new 0 0 125 125" xml:space="preserve">
<g id="Layer_3">
</g>
<g id="Layer_1">
	<g id="Layer_2">
	</g>
	<g>
		
			<circle fill="#FFFFFF" stroke="#205080" stroke-linecap="round" stroke-linejoin="round" stroke-miterlimit="10" cx="62.5" cy="61.8" r="44.8"/>
		<g>
			<path fill="#F0F1F1" stroke="#205080" stroke-linecap="round" stroke-linejoin="round" stroke-miterlimit="10" d="M26,61.3
				c0-20.1,16.3-36.5,36.5-36.5S99,41.1,99,61.3H26z"/>
		</g>
		<g>
			<path fill="#D04437" d="M60.5,59.7c-0.5-0.8-0.3-1.9,0.6-2.3l43.2-22.8c0.9-0.5,1.7-0.6,2-0.4s-0.2,0.9-1,1.5L65.8,64.6
				c-0.8,0.6-1.9,0.4-2.4-0.4L60.5,59.7z"/>
			<path fill="none" stroke="#205080" stroke-miterlimit="10" d="M60.5,59.7c-0.5-0.8-0.3-1.9,0.6-2.3l43.2-22.8
				c0.9-0.5,1.7-0.6,2-0.4s-0.2,0.9-1,1.5L65.8,64.6c-0.8,0.6-1.9,0.4-2.4-0.4L60.5,59.7z"/>
		</g>
		
			<circle fill="#FFFFFF" stroke="#205080" stroke-linecap="round" stroke-linejoin="round" stroke-miterlimit="10" cx="62.5" cy="61.6" r="6.5"/>
		
			<line fill="none" stroke="#205080" stroke-linecap="round" stroke-linejoin="round" stroke-miterlimit="10" x1="62.5" y1="28.6" x2="62.5" y2="35.2"/>
		
			<line fill="none" stroke="#205080" stroke-linecap="round" stroke-linejoin="round" stroke-miterlimit="10" x1="86" y1="38.3" x2="81.2" y2="43.1"/>
		
			<line fill="none" stroke="#205080" stroke-linecap="round" stroke-linejoin="round" stroke-miterlimit="10" x1="39" y1="38.3" x2="43.7" y2="43"/>
		
			<line fill="none" stroke="#205080" stroke-linecap="round" stroke-linejoin="round" stroke-miterlimit="10" x1="50.1" y1="31" x2="52.6" y2="37.2"/>
		
			<line fill="none" stroke="#205080" stroke-linecap="round" stroke-linejoin="round" stroke-miterlimit="10" x1="75.5" y1="31.2" x2="72.9" y2="37.4"/>
		
			<line fill="none" stroke="#205080" stroke-linecap="round" stroke-linejoin="round" stroke-miterlimit="10" x1="32.9" y1="49.8" x2="39.1" y2="52.4"/>
		
			<line fill="none" stroke="#205080" stroke-linecap="round" stroke-linejoin="round" stroke-miterlimit="10" x1="93.8" y1="50.2" x2="87.6" y2="52.6"/>
	</g>
</g>
</svg>
